<?xml version="1.0" encoding="UTF-8"?>
<!DOCTYPE svg PUBLIC "-//W3C//DTD SVG 1.1//EN" "http://www.w3.org/Graphics/SVG/1.1/DTD/svg11.dtd">
<svg xmlns="http://www.w3.org/2000/svg" version="1.1" width="500px" height="500px" style="shape-rendering:geometricPrecision; text-rendering:geometricPrecision; image-rendering:optimizeQuality; fill-rule:evenodd; clip-rule:evenodd" xmlns:xlink="http://www.w3.org/1999/xlink">
<g><path style="opacity:1" fill="#e5e5dc" d="M -0.5,-0.5 C 166.167,-0.5 332.833,-0.5 499.5,-0.5C 499.5,166.167 499.5,332.833 499.5,499.5C 332.833,499.5 166.167,499.5 -0.5,499.5C -0.5,332.833 -0.5,166.167 -0.5,-0.5 Z"/></g>
<g><path style="opacity:1" fill="#dadad1" d="M 367.5,229.5 C 365.62,231.926 364.287,234.592 363.5,237.5C 362.909,221.282 361.742,204.948 360,188.5C 359.159,185.372 358.325,182.372 357.5,179.5C 352.695,178.513 347.695,178.179 342.5,178.5C 343.539,183.849 342.205,188.349 338.5,192C 337.207,192.49 335.873,192.657 334.5,192.5C 331.482,192.335 328.482,192.502 325.5,193C 324.069,193.465 322.903,194.299 322,195.5C 321.501,191.179 321.334,186.846 321.5,182.5C 316.833,182.5 312.167,182.5 307.5,182.5C 306.833,190.167 306.167,197.833 305.5,205.5C 304.394,198.561 300.394,194.394 293.5,193C 285.668,191.023 279.002,192.857 273.5,198.5C 272.599,197.71 271.932,196.71 271.5,195.5C 271.5,191.167 271.5,186.833 271.5,182.5C 261.5,182.5 251.5,182.5 241.5,182.5C 240.025,186.014 238.025,189.347 235.5,192.5C 229.213,191.481 222.88,191.481 216.5,192.5C 215.167,192.5 213.833,192.5 212.5,192.5C 209.167,192.5 205.833,192.5 202.5,192.5C 198.167,192.5 193.833,192.5 189.5,192.5C 189.5,193.5 189.5,194.5 189.5,195.5C 188.596,196.209 188.263,197.209 188.5,198.5C 186.114,198.741 184.114,198.075 182.5,196.5C 182.5,195.167 182.5,193.833 182.5,192.5C 178.167,192.5 173.833,192.5 169.5,192.5C 169.5,193.833 169.5,195.167 169.5,196.5C 166.856,198.034 164.523,197.701 162.5,195.5C 162.5,194.833 162.5,194.167 162.5,193.5C 153.5,192.167 144.5,192.167 135.5,193.5C 135.5,194.167 135.5,194.833 135.5,195.5C 133.621,196.341 131.621,196.675 129.5,196.5C 129.5,195.167 129.5,193.833 129.5,192.5C 124.5,192.5 119.5,192.5 114.5,192.5C 114.813,188.958 114.479,185.625 113.5,182.5C 111.221,180.737 108.555,179.737 105.5,179.5C 95.1817,180.145 84.8484,180.311 74.5,180C 65.0444,183.124 59.5444,189.624 58,199.5C 57.3333,213.167 57.3333,226.833 58,240.5C 58.5323,243.264 59.3657,245.93 60.5,248.5C 64.2688,253.216 68.9355,256.716 74.5,259C 81.6059,259.826 88.6059,259.326 95.5,257.5C 99.5206,258.037 103.521,258.704 107.5,259.5C 115.132,258.908 122.798,258.908 130.5,259.5C 138.236,259.918 145.736,258.918 153,256.5C 157.218,257.867 161.551,258.867 166,259.5C 177.528,258.597 189.028,257.597 200.5,256.5C 207.152,258.535 213.985,259.535 221,259.5C 229.888,260.205 237.555,257.538 244,251.5C 246.412,252.783 248.245,254.616 249.5,257C 251.8,257.658 254.133,258.158 256.5,258.5C 260.812,257.592 264.979,256.259 269,254.5C 275.281,257.205 281.781,259.205 288.5,260.5C 296.382,257.691 304.382,257.191 312.5,259C 324.081,259.159 335.581,259.325 347,259.5C 351.549,259.184 355.549,257.517 359,254.5C 360.632,250.089 362.132,245.756 363.5,241.5C 364.308,244.45 365.642,247.117 367.5,249.5C 365.737,251.885 364.237,254.552 363,257.5C 361.062,260.106 358.562,261.939 355.5,263C 348.45,263.202 341.45,263.702 334.5,264.5C 325.32,264.988 316.153,264.322 307,262.5C 301.034,262.906 294.868,263.572 288.5,264.5C 282.131,264.032 275.964,262.699 270,260.5C 265.866,261.086 261.533,262.086 257,263.5C 252.101,262.663 247.601,261.663 243.5,260.5C 229.3,265.366 214.967,265.699 200.5,261.5C 196.084,262.729 191.584,263.396 187,263.5C 175.843,263.435 164.676,263.102 153.5,262.5C 146.716,263.683 139.883,264.35 133,264.5C 125.087,264.254 117.087,264.254 109,264.5C 104.585,263.582 100.085,262.915 95.5,262.5C 84.5335,266.156 74.2002,264.99 64.5,259C 58.4405,253.17 55.2739,246.003 55,237.5C 54.3333,225.833 54.3333,214.167 55,202.5C 55.6008,188.907 62.4341,180.407 75.5,177C 83.1418,176.566 90.1418,177.066 96.5,178.5C 103.433,175.399 110.099,175.899 116.5,180C 120.571,185.244 125.905,188.078 132.5,188.5C 143.56,186.772 154.727,186.772 166,188.5C 181.151,188.141 195.484,188.141 209,188.5C 212.39,187.462 215.89,186.795 219.5,186.5C 223.486,187.333 227.486,187.499 231.5,187C 234.5,184.333 237.5,181.667 240.5,179C 251.167,175.667 261.833,175.667 272.5,179C 275.5,181.333 278.5,183.667 281.5,186C 286.284,186.425 290.784,186.925 295,187.5C 299.056,185.453 302.556,182.619 305.5,179C 310.408,176.514 315.408,176.181 320.5,178C 324.367,180.698 328.367,183.198 332.5,185.5C 335.838,182.662 338.838,179.495 341.5,176C 348.02,172.474 354.353,172.807 360.5,177C 362.041,178.579 363.208,180.413 364,182.5C 365.82,198.257 366.986,213.924 367.5,229.5 Z"/></g>
<g><path style="opacity:1" fill="#cfcec5" d="M 357.5,179.5 C 358.325,182.372 359.159,185.372 360,188.5C 361.742,204.948 362.909,221.282 363.5,237.5C 363.5,238.833 363.5,240.167 363.5,241.5C 362.132,245.756 360.632,250.089 359,254.5C 355.549,257.517 351.549,259.184 347,259.5C 335.581,259.325 324.081,259.159 312.5,259C 304.382,257.191 296.382,257.691 288.5,260.5C 281.781,259.205 275.281,257.205 269,254.5C 264.979,256.259 260.812,257.592 256.5,258.5C 254.133,258.158 251.8,257.658 249.5,257C 248.245,254.616 246.412,252.783 244,251.5C 237.555,257.538 229.888,260.205 221,259.5C 213.985,259.535 207.152,258.535 200.5,256.5C 189.028,257.597 177.528,258.597 166,259.5C 161.551,258.867 157.218,257.867 153,256.5C 145.736,258.918 138.236,259.918 130.5,259.5C 122.798,258.908 115.132,258.908 107.5,259.5C 103.521,258.704 99.5206,258.037 95.5,257.5C 88.6059,259.326 81.6059,259.826 74.5,259C 68.9355,256.716 64.2688,253.216 60.5,248.5C 59.3657,245.93 58.5323,243.264 58,240.5C 57.3333,226.833 57.3333,213.167 58,199.5C 59.5444,189.624 65.0444,183.124 74.5,180C 84.8484,180.311 95.1817,180.145 105.5,179.5C 108.555,179.737 111.221,180.737 113.5,182.5C 108.833,182.5 104.167,182.5 99.5,182.5C 98.8333,186.5 98.1667,190.5 97.5,194.5C 96.8458,188.345 93.5125,184.512 87.5,183C 77.4005,180.042 69.7339,182.875 64.5,191.5C 62.4688,194.422 61.3022,197.755 61,201.5C 60.3333,213.833 60.3333,226.167 61,238.5C 61.9529,248.934 67.4529,255.434 77.5,258C 83.5976,258.146 89.5976,257.313 95.5,255.5C 107.7,256.268 119.367,257.268 130.5,258.5C 138.336,258.154 146.002,256.821 153.5,254.5C 157.259,255.809 161.093,256.809 165,257.5C 172.72,254.956 180.387,254.956 188,257.5C 192.078,256.464 196.078,255.131 200,253.5C 210.152,257.32 220.652,258.487 231.5,257C 237.214,254.349 241.214,250.182 243.5,244.5C 244.949,247.371 246.615,250.205 248.5,253C 250.806,254.986 253.472,256.153 256.5,256.5C 260.971,255.513 265.137,253.846 269,251.5C 273.156,252.661 276.989,254.495 280.5,257C 288.598,258.817 296.598,258.317 304.5,255.5C 306.819,256.064 309.153,256.564 311.5,257C 323.827,257.249 335.827,257.416 347.5,257.5C 351.684,257.308 355.017,255.641 357.5,252.5C 357.5,232.5 357.5,212.5 357.5,192.5C 352.833,192.5 348.167,192.5 343.5,192.5C 342.833,195.167 342.167,197.833 341.5,200.5C 340.535,196.54 338.201,193.874 334.5,192.5C 335.873,192.657 337.207,192.49 338.5,192C 342.205,188.349 343.539,183.849 342.5,178.5C 347.695,178.179 352.695,178.513 357.5,179.5 Z"/></g>
<g><path style="opacity:1" fill="#e8b849" d="M 307.5,182.5 C 312.167,182.5 316.833,182.5 321.5,182.5C 321.334,186.846 321.501,191.179 322,195.5C 322.903,194.299 324.069,193.465 325.5,193C 328.482,192.502 331.482,192.335 334.5,192.5C 338.201,193.874 340.535,196.54 341.5,200.5C 342.833,215.167 342.833,229.833 341.5,244.5C 339.211,251.148 334.544,253.982 327.5,253C 325,251.833 323.167,250 322,247.5C 321.506,249.134 321.34,250.801 321.5,252.5C 316.833,252.5 312.167,252.5 307.5,252.5C 307.5,229.167 307.5,205.833 307.5,182.5 Z"/></g>
<g><path style="opacity:1" fill="#e8b849" d="M 241.5,182.5 C 251.5,182.5 261.5,182.5 271.5,182.5C 271.5,186.833 271.5,191.167 271.5,195.5C 268.833,195.5 266.167,195.5 263.5,195.5C 263.5,214.5 263.5,233.5 263.5,252.5C 258.833,252.5 254.167,252.5 249.5,252.5C 249.5,233.833 249.5,215.167 249.5,196.5C 246.833,196.5 244.167,196.5 241.5,196.5C 241.5,191.833 241.5,187.167 241.5,182.5 Z"/></g>
<g><path style="opacity:1" fill="#000000" d="M 99.5,182.5 C 104.167,182.5 108.833,182.5 113.5,182.5C 113.5,205.833 113.5,229.167 113.5,252.5C 108.833,252.5 104.167,252.5 99.5,252.5C 99.5,229.167 99.5,205.833 99.5,182.5 Z"/></g>
<g><path style="opacity:1" fill="#050505" d="M 97.5,194.5 C 98.8029,209.458 98.8029,224.458 97.5,239.5C 93.7257,251.495 85.7257,255.662 73.5,252C 68.0061,249.168 64.8395,244.668 64,238.5C 63.2131,222.801 63.3798,207.135 64.5,191.5C 69.7339,182.875 77.4005,180.042 87.5,183C 93.5125,184.512 96.8458,188.345 97.5,194.5 Z"/></g>
<g><path style="opacity:1" fill="#e8b948" d="M 357.5,179.5 C 357.5,182.5 357.5,185.5 357.5,188.5C 352.833,188.5 348.167,188.5 343.5,188.5C 343.5,185.5 343.5,182.5 343.5,179.5C 348.167,179.5 352.833,179.5 357.5,179.5 Z"/></g>
<g><path style="opacity:1" fill="#e7b84c" d="M 305.5,205.5 C 306.793,217.124 306.793,228.791 305.5,240.5C 304.431,247.404 300.431,251.57 293.5,253C 285.99,254.606 279.49,252.773 274,247.5C 272.438,245.043 271.438,242.376 271,239.5C 270.333,227.833 270.333,216.167 271,204.5C 272.122,202.593 272.955,200.593 273.5,198.5C 279.002,192.857 285.668,191.023 293.5,193C 300.394,194.394 304.394,198.561 305.5,205.5 Z"/></g>
<g><path style="opacity:1" fill="#e8b949" d="M 343.5,192.5 C 348.167,192.5 352.833,192.5 357.5,192.5C 357.5,212.5 357.5,232.5 357.5,252.5C 352.833,252.5 348.167,252.5 343.5,252.5C 343.5,232.5 343.5,212.5 343.5,192.5 Z"/></g>
<g><path style="opacity:1" fill="#979791" d="M 113.5,182.5 C 114.479,185.625 114.813,188.958 114.5,192.5C 114.5,192.833 114.5,193.167 114.5,193.5C 114.333,209.503 114.5,225.503 115,241.5C 115.542,244.292 116.376,246.958 117.5,249.5C 116.5,249.5 115.5,249.5 114.5,249.5C 114.737,250.791 114.404,251.791 113.5,252.5C 113.5,229.167 113.5,205.833 113.5,182.5 Z"/></g>
<g><path style="opacity:1" fill="#656561" d="M 99.5,182.5 C 99.5,205.833 99.5,229.167 99.5,252.5C 98.8333,248.167 98.1667,243.833 97.5,239.5C 98.8029,224.458 98.8029,209.458 97.5,194.5C 98.1667,190.5 98.8333,186.5 99.5,182.5 Z"/></g>
<g><path style="opacity:1" fill="#c1b083" d="M 343.5,192.5 C 343.5,212.5 343.5,232.5 343.5,252.5C 342.833,249.833 342.167,247.167 341.5,244.5C 342.833,229.833 342.833,215.167 341.5,200.5C 342.167,197.833 342.833,195.167 343.5,192.5 Z"/></g>
<g><path style="opacity:1" fill="#b5b5ae" d="M 286.5,203.5 C 288.144,203.286 289.644,203.62 291,204.5C 291.667,216.5 291.667,228.5 291,240.5C 289.333,241.833 287.667,241.833 286,240.5C 285.188,228.091 285.355,215.758 286.5,203.5 Z"/></g>
<g><path style="opacity:1" fill="#c7b27d" d="M 307.5,182.5 C 307.5,205.833 307.5,229.167 307.5,252.5C 306.833,248.5 306.167,244.5 305.5,240.5C 306.793,228.791 306.793,217.124 305.5,205.5C 306.167,197.833 306.833,190.167 307.5,182.5 Z"/></g>
<g><path style="opacity:1" fill="#b8b4a6" d="M 323.5,203.5 C 325.451,203.227 326.951,203.893 328,205.5C 328.667,216.833 328.667,228.167 328,239.5C 326.599,241.192 324.766,241.859 322.5,241.5C 321.395,229.533 321.229,217.533 322,205.5C 322.717,204.956 323.217,204.289 323.5,203.5 Z"/></g>
<g><path style="opacity:1" fill="#060606" d="M 367.5,249.5 C 365.642,247.117 364.308,244.45 363.5,241.5C 363.5,240.167 363.5,238.833 363.5,237.5C 364.287,234.592 365.62,231.926 367.5,229.5C 374.428,225.177 380.928,225.844 387,231.5C 392.019,243.131 388.352,250.131 376,252.5C 372.903,252.199 370.07,251.199 367.5,249.5 Z"/></g>
<g><path style="opacity:1" fill="#c5c5bd" d="M 241.5,182.5 C 241.5,187.167 241.5,191.833 241.5,196.5C 244.167,196.5 246.833,196.5 249.5,196.5C 249.5,215.167 249.5,233.833 249.5,252.5C 254.167,252.5 258.833,252.5 263.5,252.5C 263.5,233.5 263.5,214.5 263.5,195.5C 266.167,195.5 268.833,195.5 271.5,195.5C 271.932,196.71 272.599,197.71 273.5,198.5C 272.955,200.593 272.122,202.593 271,204.5C 270.333,216.167 270.333,227.833 271,239.5C 271.438,242.376 272.438,245.043 274,247.5C 279.49,252.773 285.99,254.606 293.5,253C 300.431,251.57 304.431,247.404 305.5,240.5C 306.167,244.5 306.833,248.5 307.5,252.5C 312.167,252.5 316.833,252.5 321.5,252.5C 321.34,250.801 321.506,249.134 322,247.5C 323.167,250 325,251.833 327.5,253C 334.544,253.982 339.211,251.148 341.5,244.5C 342.167,247.167 342.833,249.833 343.5,252.5C 348.167,252.5 352.833,252.5 357.5,252.5C 355.017,255.641 351.684,257.308 347.5,257.5C 335.827,257.416 323.827,257.249 311.5,257C 309.153,256.564 306.819,256.064 304.5,255.5C 296.598,258.317 288.598,258.817 280.5,257C 276.989,254.495 273.156,252.661 269,251.5C 265.137,253.846 260.971,255.513 256.5,256.5C 253.472,256.153 250.806,254.986 248.5,253C 246.615,250.205 244.949,247.371 243.5,244.5C 241.214,250.182 237.214,254.349 231.5,257C 220.652,258.487 210.152,257.32 200,253.5C 196.078,255.131 192.078,256.464 188,257.5C 180.387,254.956 172.72,254.956 165,257.5C 161.093,256.809 157.259,255.809 153.5,254.5C 146.002,256.821 138.336,258.154 130.5,258.5C 119.367,257.268 107.7,256.268 95.5,255.5C 89.5976,257.313 83.5976,258.146 77.5,258C 67.4529,255.434 61.9529,248.934 61,238.5C 60.3333,226.167 60.3333,213.833 61,201.5C 61.3022,197.755 62.4688,194.422 64.5,191.5C 63.3798,207.135 63.2131,222.801 64,238.5C 64.8395,244.668 68.0061,249.168 73.5,252C 85.7257,255.662 93.7257,251.495 97.5,239.5C 98.1667,243.833 98.8333,248.167 99.5,252.5C 104.167,252.5 108.833,252.5 113.5,252.5C 114.404,251.791 114.737,250.791 114.5,249.5C 115.5,249.5 116.5,249.5 117.5,249.5C 118.058,250.79 119.058,251.623 120.5,252C 124.167,252.667 127.833,252.667 131.5,252C 133.049,250.786 134.215,249.286 135,247.5C 135.494,249.134 135.66,250.801 135.5,252.5C 140.167,252.5 144.833,252.5 149.5,252.5C 149.833,252.5 150.167,252.5 150.5,252.5C 155.432,253.696 160.432,254.696 165.5,255.5C 169.263,254.594 173.096,253.927 177,253.5C 180.708,253.481 184.208,254.148 187.5,255.5C 190.726,255.652 193.393,254.652 195.5,252.5C 195.5,251.5 195.5,250.5 195.5,249.5C 196.878,245.477 199.545,244.144 203.5,245.5C 206.337,252.584 211.337,254.751 218.5,252C 220.359,250.442 221.859,248.609 223,246.5C 223.495,248.473 223.662,250.473 223.5,252.5C 228.167,252.5 232.833,252.5 237.5,252.5C 237.667,235.83 237.5,219.163 237,202.5C 232.575,194.538 225.741,191.205 216.5,192.5C 222.88,191.481 229.213,191.481 235.5,192.5C 238.025,189.347 240.025,186.014 241.5,182.5 Z"/></g>
<g><path style="opacity:1" fill="#b9b9b2" d="M 151.5,202.5 C 153.221,218.499 155.055,234.499 157,250.5C 162.197,252.42 167.697,253.087 173.5,252.5C 174.41,241.48 175.576,230.48 177,219.5C 178.442,230.471 179.609,241.471 180.5,252.5C 185.5,252.5 190.5,252.5 195.5,252.5C 193.393,254.652 190.726,255.652 187.5,255.5C 184.208,254.148 180.708,253.481 177,253.5C 173.096,253.927 169.263,254.594 165.5,255.5C 160.432,254.696 155.432,253.696 150.5,252.5C 150.17,235.658 150.503,218.992 151.5,202.5 Z"/></g>
<g><path style="opacity:1" fill="#767672" d="M 135.5,193.5 C 144.5,192.167 153.5,192.167 162.5,193.5C 158.5,193.5 154.5,193.5 150.5,193.5C 150.704,196.518 151.037,199.518 151.5,202.5C 150.503,218.992 150.17,235.658 150.5,252.5C 150.167,252.5 149.833,252.5 149.5,252.5C 149.5,232.833 149.5,213.167 149.5,193.5C 144.833,193.5 140.167,193.5 135.5,193.5 Z"/></g>
<g><path style="opacity:1" fill="#b0b0a9" d="M 202.5,192.5 C 205.833,192.5 209.167,192.5 212.5,192.5C 204.758,195.983 201.758,201.983 203.5,210.5C 207.833,210.5 212.167,210.5 216.5,210.5C 216.338,208.473 216.505,206.473 217,204.5C 218.388,203.446 219.888,203.28 221.5,204C 222.456,207.394 222.789,210.894 222.5,214.5C 204.24,217.335 197.907,227.668 203.5,245.5C 199.545,244.144 196.878,245.477 195.5,249.5C 198.372,230.578 200.705,211.578 202.5,192.5 Z"/></g>
<g><path style="opacity:1" fill="#b5b5ae" d="M 83.5,237.5 C 83.5824,239.252 82.7491,240.252 81,240.5C 79.2509,240.252 78.4176,239.252 78.5,237.5C 78.5,225.167 78.5,212.833 78.5,200.5C 80.1667,200.5 81.8333,200.5 83.5,200.5C 83.5,212.833 83.5,225.167 83.5,237.5 Z"/></g>
<g><path style="opacity:1" fill="#95958f" d="M 83.5,237.5 C 83.5,225.167 83.5,212.833 83.5,200.5C 81.8333,200.5 80.1667,200.5 78.5,200.5C 78.5,212.833 78.5,225.167 78.5,237.5C 77.3395,224.006 77.1728,210.34 78,196.5C 80,193.833 82,193.833 84,196.5C 84.8272,210.34 84.6605,224.006 83.5,237.5 Z"/></g>
<g><path style="opacity:1" fill="#575753" d="M 114.5,193.5 C 114.5,193.167 114.5,192.833 114.5,192.5C 119.5,192.5 124.5,192.5 129.5,192.5C 129.5,193.833 129.5,195.167 129.5,196.5C 129.5,210.833 129.5,225.167 129.5,239.5C 128.504,224.342 128.17,209.009 128.5,193.5C 123.833,193.5 119.167,193.5 114.5,193.5 Z"/></g>
<g><path style="opacity:1" fill="#050505" d="M 182.5,196.5 C 184.075,205.434 185.242,214.434 186,223.5C 187.102,214.149 188.268,204.815 189.5,195.5C 189.5,194.5 189.5,193.5 189.5,192.5C 193.833,192.5 198.167,192.5 202.5,192.5C 200.705,211.578 198.372,230.578 195.5,249.5C 195.5,250.5 195.5,251.5 195.5,252.5C 190.5,252.5 185.5,252.5 180.5,252.5C 179.609,241.471 178.442,230.471 177,219.5C 175.576,230.48 174.41,241.48 173.5,252.5C 167.697,253.087 162.197,252.42 157,250.5C 155.055,234.499 153.221,218.499 151.5,202.5C 151.037,199.518 150.704,196.518 150.5,193.5C 154.5,193.5 158.5,193.5 162.5,193.5C 162.5,194.167 162.5,194.833 162.5,195.5C 163.665,204.823 164.832,214.157 166,223.5C 167.261,214.548 168.427,205.548 169.5,196.5C 169.5,195.167 169.5,193.833 169.5,192.5C 173.833,192.5 178.167,192.5 182.5,192.5C 182.5,193.833 182.5,195.167 182.5,196.5 Z"/></g>
<g><path style="opacity:1" fill="#aaaaa3" d="M 189.5,195.5 C 188.268,204.815 187.102,214.149 186,223.5C 185.242,214.434 184.075,205.434 182.5,196.5C 184.114,198.075 186.114,198.741 188.5,198.5C 188.263,197.209 188.596,196.209 189.5,195.5 Z"/></g>
<g><path style="opacity:1" fill="#a5a59e" d="M 162.5,195.5 C 164.523,197.701 166.856,198.034 169.5,196.5C 168.427,205.548 167.261,214.548 166,223.5C 164.832,214.157 163.665,204.823 162.5,195.5 Z"/></g>
<g><path style="opacity:1" fill="#020202" d="M 114.5,193.5 C 119.167,193.5 123.833,193.5 128.5,193.5C 128.17,209.009 128.504,224.342 129.5,239.5C 130.828,241.745 132.661,242.078 135,240.5C 135.5,225.504 135.667,210.504 135.5,195.5C 135.5,194.833 135.5,194.167 135.5,193.5C 140.167,193.5 144.833,193.5 149.5,193.5C 149.5,213.167 149.5,232.833 149.5,252.5C 144.833,252.5 140.167,252.5 135.5,252.5C 135.66,250.801 135.494,249.134 135,247.5C 134.215,249.286 133.049,250.786 131.5,252C 127.833,252.667 124.167,252.667 120.5,252C 119.058,251.623 118.058,250.79 117.5,249.5C 116.376,246.958 115.542,244.292 115,241.5C 114.5,225.503 114.333,209.503 114.5,193.5 Z"/></g>
<g><path style="opacity:1" fill="#b7b7b0" d="M 135.5,195.5 C 135.667,210.504 135.5,225.504 135,240.5C 132.661,242.078 130.828,241.745 129.5,239.5C 129.5,225.167 129.5,210.833 129.5,196.5C 131.621,196.675 133.621,196.341 135.5,195.5 Z"/></g>
<g><path style="opacity:1" fill="#060605" d="M 212.5,192.5 C 213.833,192.5 215.167,192.5 216.5,192.5C 225.741,191.205 232.575,194.538 237,202.5C 237.5,219.163 237.667,235.83 237.5,252.5C 232.833,252.5 228.167,252.5 223.5,252.5C 223.662,250.473 223.495,248.473 223,246.5C 221.859,248.609 220.359,250.442 218.5,252C 211.337,254.751 206.337,252.584 203.5,245.5C 197.907,227.668 204.24,217.335 222.5,214.5C 222.789,210.894 222.456,207.394 221.5,204C 219.888,203.28 218.388,203.446 217,204.5C 216.505,206.473 216.338,208.473 216.5,210.5C 212.167,210.5 207.833,210.5 203.5,210.5C 201.758,201.983 204.758,195.983 212.5,192.5 Z"/></g>
<g><path style="opacity:1" fill="#acaca5" d="M 221.5,221.5 C 222.489,226.975 222.822,232.642 222.5,238.5C 221.837,241.423 220.17,242.09 217.5,240.5C 216.386,235.554 216.219,230.554 217,225.5C 218.049,223.616 219.549,222.282 221.5,221.5 Z"/></g>
<g><path style="opacity:1" fill="#3a3a38" d="M 221.5,221.5 C 221.56,220.957 221.893,220.624 222.5,220.5C 223.817,226.654 223.817,232.654 222.5,238.5C 222.822,232.642 222.489,226.975 221.5,221.5 Z"/></g>
</svg>
